<svg xmlns="http://www.w3.org/2000/svg" fill="currentColor" viewBox="0 0 30 30">
  <path fill-rule="evenodd" clip-rule="evenodd" d="M23 4.3H7A2.7 2.7 0 0 0 4.3 7v16A2.7 2.7 0 0 0 7 25.7h16a2.7 2.7 0 0 0 2.7-2.7V7A2.7 2.7 0 0 0 23 4.3ZM7 3a4 4 0 0 0-4 4v16a4 4 0 0 0 4 4h16a4 4 0 0 0 4-4V7a4 4 0 0 0-4-4H7Z"/>
  <path fill-rule="evenodd" clip-rule="evenodd" d="M14.911 11a1 1 0 0 0-1 1v7.111a1 1 0 1 0 2 0v-1.667h1.667a2.778 2.778 0 0 0 2.777-2.777v-.89A2.778 2.778 0 0 0 17.578 11H14.91Zm2.667 4.444H15.91V13h1.667a.777.777 0 0 1 .777.778v.889a.777.777 0 0 1-.777.777Zm-10.778 1v-2.222a3.222 3.222 0 0 1 6.444 0v4.889a1 1 0 1 1-2 0v-1.667H8.8v1.667a1 1 0 1 1-2 0v-2.667Zm2-1h2.444v-1.222a1.222 1.222 0 1 0-2.444 0v1.222ZM22.022 11a1 1 0 0 1 1 1v7.111a1 1 0 1 1-2 0V12a1 1 0 0 1 1-1Z"/>
</svg>
